<svg id="visual" viewBox="0 0 900 600" width="900" height="600" xmlns="http://www.w3.org/2000/svg" xmlns:xlink="http://www.w3.org/1999/xlink" version="1.1"><g stroke-width="1" stroke-linejoin="bevel"><path d="M438 255.1L454 156.4L379 189.4Z" fill="#00101c" stroke="#00101c"></path><path d="M454 156.4L438 98.7L379 189.4Z" fill="#00101c" stroke="#00101c"></path><path d="M379 189.4L338 274.1L438 255.1Z" fill="#277297" stroke="#277297"></path><path d="M438 255.1L544 171.4L454 156.4Z" fill="#246688" stroke="#246688"></path><path d="M454 156.4L536 108.7L438 98.7Z" fill="#081a28" stroke="#081a28"></path><path d="M544 171.4L536 108.7L454 156.4Z" fill="#00101c" stroke="#00101c"></path><path d="M373 0L364 74.7L438 98.7Z" fill="#205a7a" stroke="#205a7a"></path><path d="M438 98.7L364 74.7L379 189.4Z" fill="#297ea6" stroke="#297ea6"></path><path d="M379 189.4L267 244.1L338 274.1Z" fill="#00101c" stroke="#00101c"></path><path d="M526 332.9L562 263.1L438 255.1Z" fill="#297ea6" stroke="#297ea6"></path><path d="M438 255.1L562 263.1L544 171.4Z" fill="#205a7a" stroke="#205a7a"></path><path d="M544 171.4L646 156.4L536 108.7Z" fill="#19435d" stroke="#19435d"></path><path d="M338 274.1L429 348.9L438 255.1Z" fill="#112e42" stroke="#112e42"></path><path d="M429 348.9L526 332.9L438 255.1Z" fill="#0c2435" stroke="#0c2435"></path><path d="M364 74.7L276 146.4L379 189.4Z" fill="#081a28" stroke="#081a28"></path><path d="M276 146.4L267 244.1L379 189.4Z" fill="#081a28" stroke="#081a28"></path><path d="M338 274.1L348 349.9L429 348.9Z" fill="#15384f" stroke="#15384f"></path><path d="M268 345.9L348 349.9L338 274.1Z" fill="#15384f" stroke="#15384f"></path><path d="M628 359.9L627 236.1L562 263.1Z" fill="#277297" stroke="#277297"></path><path d="M562 263.1L627 236.1L544 171.4Z" fill="#297ea6" stroke="#297ea6"></path><path d="M528 0L468 0L536 108.7Z" fill="#246688" stroke="#246688"></path><path d="M536 108.7L468 0L438 98.7Z" fill="#00101c" stroke="#00101c"></path><path d="M353 406.6L445 412.6L429 348.9Z" fill="#1d4e6b" stroke="#1d4e6b"></path><path d="M429 348.9L445 412.6L526 332.9Z" fill="#00101c" stroke="#00101c"></path><path d="M526 332.9L628 359.9L562 263.1Z" fill="#0c2435" stroke="#0c2435"></path><path d="M468 0L373 0L438 98.7Z" fill="#15384f" stroke="#15384f"></path><path d="M364 74.7L255 74.7L276 146.4Z" fill="#205a7a" stroke="#205a7a"></path><path d="M267 244.1L268 345.9L338 274.1Z" fill="#15384f" stroke="#15384f"></path><path d="M348 349.9L353 406.6L429 348.9Z" fill="#205a7a" stroke="#205a7a"></path><path d="M248 0L255 74.7L364 74.7Z" fill="#1d4e6b" stroke="#1d4e6b"></path><path d="M158 148.4L197 273.1L267 244.1Z" fill="#0c2435" stroke="#0c2435"></path><path d="M267 244.1L197 273.1L268 345.9Z" fill="#00101c" stroke="#00101c"></path><path d="M268 345.9L353 406.6L348 349.9Z" fill="#15384f" stroke="#15384f"></path><path d="M627 236.1L646 156.4L544 171.4Z" fill="#112e42" stroke="#112e42"></path><path d="M610 65.7L528 0L536 108.7Z" fill="#1d4e6b" stroke="#1d4e6b"></path><path d="M646 156.4L610 65.7L536 108.7Z" fill="#277297" stroke="#277297"></path><path d="M445 412.6L553 410.6L526 332.9Z" fill="#1d4e6b" stroke="#1d4e6b"></path><path d="M158 148.4L267 244.1L276 146.4Z" fill="#0c2435" stroke="#0c2435"></path><path d="M553 410.6L628 359.9L526 332.9Z" fill="#205a7a" stroke="#205a7a"></path><path d="M722 244.1L700 146.4L646 156.4Z" fill="#112e42" stroke="#112e42"></path><path d="M696 0L608 0L610 65.7Z" fill="#297ea6" stroke="#297ea6"></path><path d="M610 65.7L608 0L528 0Z" fill="#1d4e6b" stroke="#1d4e6b"></path><path d="M373 0L248 0L364 74.7Z" fill="#297ea6" stroke="#297ea6"></path><path d="M255 74.7L189 74.7L276 146.4Z" fill="#205a7a" stroke="#205a7a"></path><path d="M248 0L189 74.7L255 74.7Z" fill="#112e42" stroke="#112e42"></path><path d="M722 244.1L646 156.4L627 236.1Z" fill="#246688" stroke="#246688"></path><path d="M646 156.4L700 146.4L610 65.7Z" fill="#0c2435" stroke="#0c2435"></path><path d="M189 74.7L158 148.4L276 146.4Z" fill="#246688" stroke="#246688"></path><path d="M193 441.6L254 425.6L268 345.9Z" fill="#19435d" stroke="#19435d"></path><path d="M268 345.9L254 425.6L353 406.6Z" fill="#297ea6" stroke="#297ea6"></path><path d="M344 509.3L458 502.3L445 412.6Z" fill="#1d4e6b" stroke="#1d4e6b"></path><path d="M445 412.6L458 502.3L553 410.6Z" fill="#112e42" stroke="#112e42"></path><path d="M628 359.9L722 244.1L627 236.1Z" fill="#00101c" stroke="#00101c"></path><path d="M81 257.1L157 322.9L197 273.1Z" fill="#297ea6" stroke="#297ea6"></path><path d="M197 273.1L157 322.9L268 345.9Z" fill="#15384f" stroke="#15384f"></path><path d="M344 509.3L445 412.6L353 406.6Z" fill="#0c2435" stroke="#0c2435"></path><path d="M553 410.6L637 440.6L628 359.9Z" fill="#15384f" stroke="#15384f"></path><path d="M539 519.3L637 440.6L553 410.6Z" fill="#112e42" stroke="#112e42"></path><path d="M628 359.9L727 364.9L722 244.1Z" fill="#246688" stroke="#246688"></path><path d="M254 425.6L344 509.3L353 406.6Z" fill="#15384f" stroke="#15384f"></path><path d="M107 101.7L108 172.4L158 148.4Z" fill="#0c2435" stroke="#0c2435"></path><path d="M158 148.4L108 172.4L197 273.1Z" fill="#277297" stroke="#277297"></path><path d="M107 101.7L158 148.4L189 74.7Z" fill="#00101c" stroke="#00101c"></path><path d="M248 0L174 0L189 74.7Z" fill="#19435d" stroke="#19435d"></path><path d="M458 502.3L539 519.3L553 410.6Z" fill="#112e42" stroke="#112e42"></path><path d="M516 600L539 519.3L458 502.3Z" fill="#00101c" stroke="#00101c"></path><path d="M803 152.4L743 84.7L700 146.4Z" fill="#1d4e6b" stroke="#1d4e6b"></path><path d="M700 146.4L743 84.7L610 65.7Z" fill="#1d4e6b" stroke="#1d4e6b"></path><path d="M743 84.7L696 0L610 65.7Z" fill="#205a7a" stroke="#205a7a"></path><path d="M254 425.6L281 515.3L344 509.3Z" fill="#205a7a" stroke="#205a7a"></path><path d="M157 322.9L193 441.6L268 345.9Z" fill="#19435d" stroke="#19435d"></path><path d="M111 436.6L193 441.6L157 322.9Z" fill="#00101c" stroke="#00101c"></path><path d="M637 440.6L727 364.9L628 359.9Z" fill="#00101c" stroke="#00101c"></path><path d="M722 244.1L803 152.4L700 146.4Z" fill="#277297" stroke="#277297"></path><path d="M174 0L107 101.7L189 74.7Z" fill="#112e42" stroke="#112e42"></path><path d="M193 441.6L281 515.3L254 425.6Z" fill="#297ea6" stroke="#297ea6"></path><path d="M374 600L461 600L458 502.3Z" fill="#246688" stroke="#246688"></path><path d="M0 244.1L81 257.1L108 172.4Z" fill="#277297" stroke="#277297"></path><path d="M108 172.4L81 257.1L197 273.1Z" fill="#1d4e6b" stroke="#1d4e6b"></path><path d="M727 364.9L791 270.1L722 244.1Z" fill="#277297" stroke="#277297"></path><path d="M81 257.1L86 356.9L157 322.9Z" fill="#15384f" stroke="#15384f"></path><path d="M193 441.6L196 532.3L281 515.3Z" fill="#0c2435" stroke="#0c2435"></path><path d="M791 270.1L803 152.4L722 244.1Z" fill="#19435d" stroke="#19435d"></path><path d="M743 84.7L798 0L696 0Z" fill="#112e42" stroke="#112e42"></path><path d="M539 519.3L626 530.3L637 440.6Z" fill="#246688" stroke="#246688"></path><path d="M637 440.6L740 450.6L727 364.9Z" fill="#205a7a" stroke="#205a7a"></path><path d="M727 364.9L820 364.9L791 270.1Z" fill="#1d4e6b" stroke="#1d4e6b"></path><path d="M620 600L626 530.3L539 519.3Z" fill="#00101c" stroke="#00101c"></path><path d="M803 152.4L805 96.7L743 84.7Z" fill="#00101c" stroke="#00101c"></path><path d="M86 356.9L111 436.6L157 322.9Z" fill="#277297" stroke="#277297"></path><path d="M744 498.3L740 450.6L637 440.6Z" fill="#15384f" stroke="#15384f"></path><path d="M374 600L344 509.3L263 600Z" fill="#297ea6" stroke="#297ea6"></path><path d="M374 600L458 502.3L344 509.3Z" fill="#1d4e6b" stroke="#1d4e6b"></path><path d="M263 600L344 509.3L281 515.3Z" fill="#1d4e6b" stroke="#1d4e6b"></path><path d="M111 436.6L196 532.3L193 441.6Z" fill="#00101c" stroke="#00101c"></path><path d="M461 600L516 600L458 502.3Z" fill="#246688" stroke="#246688"></path><path d="M174 0L69 0L107 101.7Z" fill="#205a7a" stroke="#205a7a"></path><path d="M0 148.4L0 244.1L108 172.4Z" fill="#297ea6" stroke="#297ea6"></path><path d="M805 96.7L798 0L743 84.7Z" fill="#1d4e6b" stroke="#1d4e6b"></path><path d="M740 450.6L820 364.9L727 364.9Z" fill="#297ea6" stroke="#297ea6"></path><path d="M900 261.1L900 167.4L803 152.4Z" fill="#00101c" stroke="#00101c"></path><path d="M803 152.4L900 100.7L805 96.7Z" fill="#19435d" stroke="#19435d"></path><path d="M196 532.3L263 600L281 515.3Z" fill="#205a7a" stroke="#205a7a"></path><path d="M626 530.3L744 498.3L637 440.6Z" fill="#00101c" stroke="#00101c"></path><path d="M740 450.6L827 431.6L820 364.9Z" fill="#19435d" stroke="#19435d"></path><path d="M736 600L744 498.3L626 530.3Z" fill="#205a7a" stroke="#205a7a"></path><path d="M81 257.1L0 330.9L86 356.9Z" fill="#00101c" stroke="#00101c"></path><path d="M86 356.9L0 432.6L111 436.6Z" fill="#277297" stroke="#277297"></path><path d="M0 148.4L108 172.4L107 101.7Z" fill="#1d4e6b" stroke="#1d4e6b"></path><path d="M0 86.7L0 148.4L107 101.7Z" fill="#081a28" stroke="#081a28"></path><path d="M516 600L620 600L539 519.3Z" fill="#0c2435" stroke="#0c2435"></path><path d="M69 0L0 86.7L107 101.7Z" fill="#00101c" stroke="#00101c"></path><path d="M0 244.1L0 330.9L81 257.1Z" fill="#1d4e6b" stroke="#1d4e6b"></path><path d="M96 528.3L190 600L196 532.3Z" fill="#205a7a" stroke="#205a7a"></path><path d="M744 498.3L827 431.6L740 450.6Z" fill="#246688" stroke="#246688"></path><path d="M900 261.1L803 152.4L791 270.1Z" fill="#297ea6" stroke="#297ea6"></path><path d="M828 521.3L827 431.6L744 498.3Z" fill="#1d4e6b" stroke="#1d4e6b"></path><path d="M96 528.3L196 532.3L111 436.6Z" fill="#246688" stroke="#246688"></path><path d="M196 532.3L190 600L263 600Z" fill="#297ea6" stroke="#297ea6"></path><path d="M0 505.3L96 528.3L111 436.6Z" fill="#081a28" stroke="#081a28"></path><path d="M900 261.1L791 270.1L900 340.9Z" fill="#081a28" stroke="#081a28"></path><path d="M805 96.7L900 0L798 0Z" fill="#112e42" stroke="#112e42"></path><path d="M900 340.9L791 270.1L820 364.9Z" fill="#00101c" stroke="#00101c"></path><path d="M69 0L0 0L0 86.7Z" fill="#297ea6" stroke="#297ea6"></path><path d="M900 167.4L900 100.7L803 152.4Z" fill="#246688" stroke="#246688"></path><path d="M0 330.9L0 432.6L86 356.9Z" fill="#277297" stroke="#277297"></path><path d="M900 416.6L900 340.9L820 364.9Z" fill="#00101c" stroke="#00101c"></path><path d="M620 600L736 600L626 530.3Z" fill="#081a28" stroke="#081a28"></path><path d="M827 431.6L900 416.6L820 364.9Z" fill="#0c2435" stroke="#0c2435"></path><path d="M795 600L828 521.3L744 498.3Z" fill="#112e42" stroke="#112e42"></path><path d="M900 100.7L900 0L805 96.7Z" fill="#297ea6" stroke="#297ea6"></path><path d="M900 489.3L900 416.6L827 431.6Z" fill="#19435d" stroke="#19435d"></path><path d="M0 432.6L0 505.3L111 436.6Z" fill="#00101c" stroke="#00101c"></path><path d="M96 528.3L68 600L190 600Z" fill="#19435d" stroke="#19435d"></path><path d="M0 505.3L68 600L96 528.3Z" fill="#19435d" stroke="#19435d"></path><path d="M736 600L795 600L744 498.3Z" fill="#297ea6" stroke="#297ea6"></path><path d="M828 521.3L900 489.3L827 431.6Z" fill="#246688" stroke="#246688"></path><path d="M900 600L900 489.3L828 521.3Z" fill="#0c2435" stroke="#0c2435"></path><path d="M0 505.3L0 600L68 600Z" fill="#00101c" stroke="#00101c"></path><path d="M795 600L900 600L828 521.3Z" fill="#1d4e6b" stroke="#1d4e6b"></path></g></svg>