<svg id="visual" viewBox="0 0 960 540" width="960" height="540" xmlns="http://www.w3.org/2000/svg" xmlns:xlink="http://www.w3.org/1999/xlink" version="1.1"><g stroke-width="1" stroke-linejoin="bevel"><path d="M525 339L329 285L405 540Z" fill="#19435d" stroke="#19435d"></path><path d="M541 101L296 254L329 285Z" fill="#00101c" stroke="#00101c"></path><path d="M329 285L177 540L405 540Z" fill="#19435d" stroke="#19435d"></path><path d="M405 540L584 540L525 339Z" fill="#277297" stroke="#277297"></path><path d="M296 254L155 311L329 285Z" fill="#1d4e6b" stroke="#1d4e6b"></path><path d="M155 311L177 540L329 285Z" fill="#112e42" stroke="#112e42"></path><path d="M816 250L541 101L525 339Z" fill="#15384f" stroke="#15384f"></path><path d="M525 339L541 101L329 285Z" fill="#081a28" stroke="#081a28"></path><path d="M296 254L120 182L155 311Z" fill="#246688" stroke="#246688"></path><path d="M226 0L120 182L296 254Z" fill="#00101c" stroke="#00101c"></path><path d="M155 311L0 374L177 540Z" fill="#1d4e6b" stroke="#1d4e6b"></path><path d="M120 182L0 374L155 311Z" fill="#081a28" stroke="#081a28"></path><path d="M541 101L356 0L296 254Z" fill="#00101c" stroke="#00101c"></path><path d="M0 374L0 540L177 540Z" fill="#246688" stroke="#246688"></path><path d="M797 0L558 0L541 101Z" fill="#297ea6" stroke="#297ea6"></path><path d="M541 101L558 0L356 0Z" fill="#246688" stroke="#246688"></path><path d="M120 182L0 98L0 374Z" fill="#297ea6" stroke="#297ea6"></path><path d="M356 0L226 0L296 254Z" fill="#246688" stroke="#246688"></path><path d="M858 399L816 250L525 339Z" fill="#00101c" stroke="#00101c"></path><path d="M584 540L858 399L525 339Z" fill="#15384f" stroke="#15384f"></path><path d="M584 540L837 540L858 399Z" fill="#19435d" stroke="#19435d"></path><path d="M226 0L0 98L120 182Z" fill="#246688" stroke="#246688"></path><path d="M960 150L797 0L816 250Z" fill="#246688" stroke="#246688"></path><path d="M816 250L797 0L541 101Z" fill="#277297" stroke="#277297"></path><path d="M960 540L960 307L858 399Z" fill="#081a28" stroke="#081a28"></path><path d="M858 399L960 307L816 250Z" fill="#246688" stroke="#246688"></path><path d="M226 0L0 0L0 98Z" fill="#277297" stroke="#277297"></path><path d="M837 540L960 540L858 399Z" fill="#297ea6" stroke="#297ea6"></path><path d="M960 307L960 150L816 250Z" fill="#00101c" stroke="#00101c"></path><path d="M960 150L960 0L797 0Z" fill="#277297" stroke="#277297"></path></g></svg>