<svg id="visual" viewBox="0 0 900 600" width="900" height="600" xmlns="http://www.w3.org/2000/svg" xmlns:xlink="http://www.w3.org/1999/xlink" version="1.1"><rect x="0" y="0" width="900" height="600" fill="#002233"></rect><path d="M0 499L18.8 488C37.7 477 75.3 455 112.8 445.3C150.3 435.7 187.7 438.3 225.2 450.2C262.7 462 300.3 483 337.8 489.5C375.3 496 412.7 488 450.2 475C487.7 462 525.3 444 562.8 434.2C600.3 424.3 637.7 422.7 675.2 426.3C712.7 430 750.3 439 787.8 443.2C825.3 447.3 862.7 446.7 881.3 446.3L900 446L900 601L881.3 601C862.7 601 825.3 601 787.8 601C750.3 601 712.7 601 675.2 601C637.7 601 600.3 601 562.8 601C525.3 601 487.7 601 450.2 601C412.7 601 375.3 601 337.8 601C300.3 601 262.7 601 225.2 601C187.7 601 150.3 601 112.8 601C75.3 601 37.7 601 18.8 601L0 601Z" fill="#0066FF" stroke-linecap="round" stroke-linejoin="miter"></path></svg>